PathFileType	4	(X/Y/Z)	C:\Users\WrightLab\Desktop\Jo\P2_Trial15.trc
DataRate	CameraRate	NumFrames	NumMarkers	Units	OrigDataRate	OrigDataStartFrame	OrigNumFrames
100.00	100.00	       20	19	mm	100.00	56	       440
Frame#	Time	Headset_Front			Headset_Back			Headset_Left			Headset_Right			Left_Shoulder			Right_Shoulder			Sternum			C7			Left Elbow			Right Elbow			Left Wrist			Right Wrist			Left ASIS			Right ASIS			S2			Left Knee			Right Knee			Left Ankle			Right Ankle			
		X1	Y1	Z1	X2	Y2	Z2	X3	Y3	Z3	X4	Y4	Z4	X5	Y5	Z5	X6	Y6	Z6	X7	Y7	Z7	X8	Y8	Z8	X9	Y9	Z9	X10	Y10	Z10	X11	Y11	Z11	X12	Y12	Z12	X13	Y13	Z13	X14	Y14	Z14	X15	Y15	Z15	X16	Y16	Z16	X17	Y17	Z17	X18	Y18	Z18	X19	Y19	Z19	

56	0.550	-842.02362	516.00446	-1139.94055	-470.63055	1415.30969	-1007.57312							-724.21411	1530.41943	-861.14624	-796.66479	1410.29529	-1025.13745	-639.41394	1292.89380	-960.05023	-643.92822	1410.40967	-1129.22388	-369.19467	1064.09778	-1021.54254	-934.28729	1097.96069	-1076.75146	-723.01715	995.32172	-955.39398	-1009.04706	859.69824	-1023.52765	-594.72644	1006.53589	-934.93530							-515.39099	453.15701	-856.12128				-519.54968	168.65567	-1039.54663	-333.14627	822.85608	-1045.71106	
57	0.560	-602.15637	924.45349	-1197.93250	-473.10699	1414.92371	-999.64667							-726.64020	1529.85205	-852.29578	-799.30505	1409.79419	-1015.78741	-642.29236	1291.82715	-952.59967	-647.77527	1410.15039	-1120.93896	-370.14780	1064.03186	-1016.67151	-939.29071	1097.81079	-1065.10449	-725.28027	994.04681	-946.66071	-1013.81024	860.18536	-1010.64258	-596.89459	1006.21808	-925.36829							-518.57062	453.66931	-841.81970				-522.06653	171.15244	-1018.00391	-333.73462	823.72150	-1042.68884	
58	0.570	-843.43799	517.00769	-1138.61865	-476.29260	1414.24121	-991.71417										-802.37305	1409.44727	-1006.10406	-644.52069	1290.36609	-944.56396	-651.35382	1409.82788	-1112.51440	-370.63126	1063.31091	-1009.63422	-943.86432	1097.71777	-1053.21057	-729.30682	994.21545	-938.12885	-1017.43750	860.21930	-997.88239	-599.54456	1004.65271	-919.88361							-521.96436	454.44348	-829.69769				-529.83600	169.68462	-997.39691	-333.22961	823.18793	-1039.46069	
59	0.580	-844.30878	516.73535	-1136.52698	-479.25766	1413.72339	-982.95770										-804.66058	1409.18054	-997.20935	-646.60962	1289.90381	-936.12463	-654.85010	1409.30286	-1103.55530	-371.19955	1063.01782	-1003.56018	-947.49298	1097.20251	-1041.60632	-728.91449	991.75629	-929.30121	-1021.11786	860.18634	-984.47736	-601.88556	1004.19763	-912.80334							-523.30359	456.38345	-816.35016				-561.22949	148.89195	-966.54553	-334.49237	822.19104	-1034.24585	
60	0.590	-612.27979	924.57983	-1176.06140	-481.84949	1412.50476	-975.38916										-807.23053	1407.99841	-987.40619	-647.96167	1288.54614	-927.51703	-658.04407	1408.97363	-1094.89282	-372.30051	1063.13452	-998.56000	-950.81958	1097.13806	-1029.79175	-731.90344	991.43970	-919.80084	-1024.29956	859.61676	-971.28253	-603.57373	1003.08850	-902.65106							-525.18530	458.40726	-804.91602				-568.61371	143.35765	-943.51471	-333.87604	822.54382	-1032.02710	
61	0.600	-614.96240	923.94476	-1167.40820	-484.60730	1410.92798	-967.06183										-809.62280	1407.56055	-977.98016	-650.49683	1288.49927	-918.04431	-660.98328	1408.61450	-1086.30310	-372.87897	1062.54907	-993.90784	-954.40033	1096.38977	-1017.63397	-733.72290	990.65436	-909.01239	-1026.38464	859.81854	-957.89240	-605.75653	1003.55560	-893.52307							-528.30707	459.74551	-794.52295				-576.21307	138.18936	-919.77496	-333.29593	822.87964	-1029.93420	
62	0.610				-487.00665	1410.63196	-960.16449				-731.73883	1519.64099	-804.24011				-812.06354	1406.46191	-968.48242	-653.48309	1287.41345	-908.03400	-663.78461	1407.87109	-1077.31067	-373.78705	1062.04956	-987.15631	-956.94928	1096.01855	-1006.12970	-736.45581	989.71960	-898.74780	-1028.11536	859.73468	-943.50928	-608.05396	1001.36066	-885.95471							-530.28998	461.48532	-784.43420				-583.43152	131.60736	-896.39581	-335.10471	822.10675	-1022.12177	
63	0.620				-489.14874	1409.21057	-948.92871				-734.15259	1518.31482	-795.08447				-814.35034	1405.69641	-959.11652	-654.98938	1285.59009	-898.80219	-666.40326	1407.24561	-1068.56213	-374.91650	1061.55261	-981.51196	-958.36603	1093.72449	-993.25714	-738.55194	985.00635	-903.48248	-1028.70471	859.60199	-929.39636	-610.85162	1001.38611	-878.11920							-531.22882	462.28177	-773.17657				-590.05878	124.92963	-873.88098	-336.38495	821.67505	-1018.10626	
64	0.630				-491.16959	1408.03528	-941.10150				-735.88751	1517.05908	-785.28503				-816.21808	1404.31567	-949.83673	-657.99487	1286.19531	-890.01917	-668.92377	1406.20251	-1058.95728	-375.70877	1060.42358	-975.50958	-960.08405	1093.34973	-982.07593				-1027.98682	858.67401	-913.51239	-613.02325	999.14960	-869.51801							-532.87762	462.03333	-763.56512				-596.03070	118.22175	-848.10168	-336.62506	821.29401	-1013.64349	
65	0.640				-494.01920	1405.84766	-931.35760				-736.83423	1515.12097	-775.62762				-819.05475	1402.98462	-940.28741	-661.99396	1281.41882	-884.60468	-671.14783	1405.11243	-1049.94458	-376.56894	1060.24890	-968.58478	-960.89142	1091.21594	-969.13647	-622.04047	921.00116	-1132.32678	-1026.62891	857.61285	-897.66418	-614.57861	998.37805	-858.36383	-743.56946	983.37830	-881.59082				-534.42200	460.60388	-755.71356				-599.52417	111.09437	-824.68921	-337.80649	819.05450	-1007.52777	
66	0.650				-496.07486	1404.84668	-922.66077				-738.59430	1514.27307	-765.58911				-820.95197	1401.87415	-931.39044	-663.87854	1280.62756	-874.05603	-673.52734	1403.87927	-1040.62341	-377.57196	1058.64575	-960.13501	-960.86163	1089.90601	-957.24530				-1024.32068	856.99438	-880.67114	-617.11688	998.25891	-846.98651	-745.22595	982.84125	-874.28137				-535.93213	458.01587	-748.21826				-605.71393	102.35908	-797.08252	-336.62378	818.71277	-1004.95319	
67	0.660				-498.06699	1403.36829	-912.77856				-739.10016	1512.28821	-755.70752				-822.87598	1400.21118	-921.88654	-666.18658	1278.93152	-863.75165	-675.86969	1402.10278	-1030.51575	-378.72354	1057.24133	-952.76898	-960.49030	1086.87634	-943.33380	-623.65332	917.28314	-1103.00195	-1021.87653	856.65424	-864.25586	-620.07269	995.41394	-841.40228	-747.75128	980.21936	-863.52478				-537.41516	453.96838	-740.69275				-599.65741	100.79915	-786.72589	-338.26855	818.04712	-997.36804	
68	0.670				-500.25317	1401.58740	-902.87909				-741.56464	1510.88159	-745.94366				-825.70294	1398.38538	-912.01019	-668.32404	1278.27759	-856.66699	-678.09961	1400.57849	-1021.01947	-380.31082	1056.15161	-944.07178	-959.30444	1084.02051	-929.96674	-624.60901	915.86145	-1093.20923	-1018.37140	854.60156	-845.68365	-621.58142	995.47894	-830.67993							-540.63129	449.48752	-733.53503				-611.37653	87.80186	-744.30914	-340.50174	816.70593	-990.97607	
69	0.680				-502.41208	1399.96667	-892.98370				-741.75189	1508.78345	-735.88000				-827.50592	1396.95947	-902.11035	-670.72638	1276.40430	-846.93011	-680.40833	1398.53271	-1011.47046	-382.13489	1054.57178	-938.02271	-957.28790	1080.96460	-916.36682	-625.17365	914.32062	-1082.73218	-1013.72455	852.61737	-827.34784	-623.80884	993.34064	-819.98340	-750.66583	975.58405	-849.90356				-545.25708	446.23907	-728.23969				-606.44824	85.82153	-730.31232	-341.07440	814.31134	-983.54822	
70	0.690				-503.68561	1398.59961	-884.39697				-741.71191	1506.94751	-725.44434				-829.36084	1394.91541	-892.53851	-670.92072	1277.78418	-827.94769	-682.41101	1396.88452	-1001.55115	-383.58478	1054.07373	-929.49097	-955.07080	1077.75061	-902.38348	-625.84357	912.53326	-1072.62109	-1007.77386	849.74701	-809.26154	-624.64569	992.64648	-808.50049	-753.42926	975.80286	-833.66132				-549.72534	444.31396	-721.80670	-855.61475	511.59988	-1092.66931	-617.84821	73.10606	-684.72845	-340.01648	814.53345	-980.42755	
71	0.700				-505.59064	1397.35986	-876.31610				-742.92108	1505.86365	-715.61639				-831.78247	1392.44263	-882.58942	-673.53394	1273.43457	-824.55176	-684.38867	1395.06580	-991.86694	-385.39813	1051.91138	-919.97650	-952.97943	1074.24878	-888.02039	-626.27368	910.67902	-1061.23157	-1002.95862	847.95160	-791.15619	-625.59863	991.21210	-797.95819	-753.58472	973.49561	-824.23615				-554.89636	442.13800	-714.91528	-857.65057	509.05939	-1083.22559	-619.36328	68.62936	-653.81470	-338.33560	816.16577	-952.43042	
72	0.710				-507.05826	1395.72729	-866.03955				-743.51312	1504.69043	-705.96613				-832.41364	1391.07922	-871.59637	-676.13544	1271.46521	-817.50262	-686.31000	1393.18518	-981.87219	-387.07761	1050.23059	-910.82098	-950.48297	1071.72205	-874.03082	-626.94702	908.71008	-1050.17615	-996.21234	846.88947	-774.02008	-626.48431	989.47192	-787.70166	-754.06042	973.11938	-811.51709				-560.13586	439.15268	-707.76465	-859.65295	508.07663	-1075.97888	-616.36670	73.26318	-627.62683	-339.72891	816.78247	-949.20038	
73	0.720				-508.24252	1394.61890	-857.12720				-744.42157	1504.09656	-695.80078				-834.54651	1388.67188	-861.23199	-676.65729	1270.45923	-803.03748	-687.99121	1391.06909	-971.03467	-388.60699	1049.02063	-903.42932	-947.87311	1069.22412	-860.33398	-627.26636	907.05676	-1038.34607	-990.95935	844.53912	-756.36853	-628.11859	987.31915	-776.45911	-755.06372	969.85797	-802.00818				-565.80591	436.16208	-699.80804	-862.09570	504.64163	-1064.30432	-615.66431	78.08266	-601.83771	-344.05701	810.42792	-957.71222	
74	0.730				-509.32376	1393.14453	-846.32648				-743.04834	1502.40381	-684.37256				-835.40363	1387.79980	-849.72003	-676.48938	1268.88330	-793.29797	-689.49860	1389.52124	-960.85608	-390.20474	1047.67969	-894.04041	-945.48651	1066.74658	-847.10229	-627.47009	905.53253	-1026.98657	-983.90649	843.05469	-740.20099	-628.79816	986.48737	-764.17114	-756.25665	967.48584	-792.79974				-571.16400	433.85052	-692.90601	-863.32184	505.12015	-1058.37000	-596.45874	97.88140	-586.35901	-348.00339	808.22632	-944.55695	
75	0.740				-510.11789	1392.44727	-838.71368				-744.23785	1502.09509	-673.82983				-836.27399	1386.58850	-838.46381	-676.72888	1269.26282	-781.60388	-690.90259	1387.71106	-949.51904	-391.24786	1045.97705	-883.76202	-942.82617	1065.03882	-833.64014	-627.50757	904.01819	-1014.77057	-978.00635	842.39569	-724.99896	-628.91986	985.07965	-752.51654	-757.34607	965.58698	-779.99872				-575.31213	432.32574	-685.78528	-865.08624	502.21133	-1046.30469	-595.65619	105.00053	-564.68433	-347.04660	808.82495	-941.14319	
